<svg width="800" height="600" xmlns="http://www.w3.org/2000/svg">

 <g>
  <title>Layer 1</title>
  <rect id="svg_1" height="192" width="246" y="52" x="62.5" stroke="#000" fill="#fff"/>
  <rect id="svg_2" height="99" width="102" y="209" x="210.5" stroke="#000" fill="#fff"/>
  <rect id="svg_3" height="78" width="127" y="159" x="216.5" stroke="#000" fill="#fff"/>
  <rect id="svg_4" height="113" width="197" y="170" x="50.5" stroke="#000" fill="#fff"/>
  <rect id="svg_5" height="174" width="184" y="64" x="41.5" stroke="#000" fill="#fff"/>
  <path stroke="#000" d="m127.5,357c0.99503,0 1.49254,0 2.48756,0c1.49254,0 2.98508,0 3.9801,0c1.99005,0 3.9801,0 5.97014,0c1.49254,0 3.48259,0 5.47264,0c1.99005,0 3.48259,0 5.47264,-2.26028c1.99005,-2.26025 2.98508,-2.26025 4.47762,-4.52054c1.49254,-2.26028 2.68002,-6.5946 3.98009,-9.04111c0.91928,-1.72992 2.48756,-4.52054 3.9801,-6.78082c1.49254,-2.26025 2.48756,-4.52054 3.9801,-6.78082c1.49254,-2.26025 2.69258,-4.44946 4.47762,-9.04108c0.61226,-1.57492 1.93111,-4.95062 3.48259,-9.04111c0.96219,-2.5368 1.68501,-4.33429 2.98508,-6.78082c0.91928,-1.72992 1.685,-4.33429 2.98506,-6.78082c0.9193,-1.72992 2.39987,-5.6196 3.48259,-6.78082c0.96841,-1.0386 1.53156,-4.04556 2.98508,-6.78082c1.02779,-1.93414 1.58508,-3.82562 2.48756,-6.78082c0.57077,-1.86902 1.22328,-3.82761 1.49254,-6.78082c0.19038,-2.0882 0.49751,-4.52054 0.49751,-6.78082c0,0 0.49751,-4.52054 0.49751,-6.78081c0,-2.26028 0.49751,-4.52055 0.49751,-6.78082c0,-4.52055 0.49751,-6.78082 0.49751,-9.04109c0,-2.26028 0.49751,-6.78082 0.49751,-6.78082c0.49751,-4.52055 0.90733,-7.87988 1.99005,-9.04111c0.48419,-0.5193 0.99503,-2.26027 1.99004,-4.52054c0.99503,-2.26028 1.99005,-2.26028 2.98508,-4.52055c0.99503,-2.26027 2.49399,-4.15848 2.98508,-4.52054c1.55296,-1.14494 2.38657,-5.10031 2.98508,-6.78082c1.3383,-3.75772 2.58011,-1.56535 3.48259,-4.52055c0.57077,-1.86903 0.99503,-4.52055 1.99005,-4.52055c0.49751,0 0.99503,-2.26027 1.49254,-2.26027c0.49751,0 0.99503,0 1.49254,0c0.49751,0 0.99503,0 0.99503,0c0.49751,0 0.99503,0 0.99503,0c0.4975,0 0.4975,0 0.99501,0c0.49751,0 0.49751,0 0.99503,0c0.49751,0 1.0329,1.39529 1.49254,2.26027c0.65004,1.22327 0.54622,6.384 1.49254,9.04111c0.42322,1.18828 1.08115,4.18768 1.49254,6.78082c0.65048,4.10011 1.22328,8.34818 1.49254,11.30136c0.38078,4.17645 0.73943,10.90298 0.99503,15.82191c0.22861,4.39963 0.24191,8.64272 0.49751,13.56165c0.22861,4.39963 0,9.04111 0,11.30136c0,2.26028 0,4.52057 0,6.78082c0,0 0,2.26028 0,2.26028c0,0 0.49751,2.26028 0.49751,2.26028c0,0 0,2.26025 0,4.52054c0,0 0,0 0,2.26028c0,2.26025 0,2.26025 0,2.26025c0,0 0,2.26028 0,2.26028l0,0" id="svg_6" fill="none"/>
  <path id="svg_7" d="m178.6075,320.67499l0,0c0,-85.88051 114.61714,-155.49998 255.99834,-155.49998l0,0c67.89471,0 133.0094,16.38278 181.01709,45.54366c48.0141,29.16115 74.98456,68.71451 74.98456,109.95633l0,0c0,85.8804 -114.61719,155.5 -256.00165,155.5l0,0c-141.3812,0 -255.99834,-69.6196 -255.99834,-155.5zm127.99809,0l0,0c0,42.94177 57.30853,77.74969 128.00024,77.74969c70.69461,0 128.00403,-34.80792 128.00403,-77.74969c0,-42.93863 -57.30942,-77.74998 -128.00403,-77.74998l0,0c-70.69171,0 -128.00024,34.81136 -128.00024,77.74998z" fill-opacity="null" stroke-opacity="null" stroke-dasharray="null" stroke-width="null" stroke="#000" fill="none"/>
  <path id="svg_8" d="m71.78252,213.91499l0,0c0,-56.33376 82.82315,-101.99999 184.99995,-101.99999l0,0c49.06155,0 96.12363,10.74692 130.8132,29.87504c34.69672,19.12807 54.18683,45.07167 54.18683,72.12495l0,0c0,56.33214 -82.82813,102.00002 -185.00003,102.00002l0,0c-102.1768,0 -184.99995,-45.66788 -184.99995,-102.00002zm92.49997,0l0,0c0,28.16605 41.41606,50.99992 92.49998,50.99992c51.08395,0 92.50003,-22.83388 92.50003,-50.99992c0,-28.16766 -41.41608,-51 -92.50003,-51l0,0c-51.08392,0 -92.49998,22.83234 -92.49998,51z" fill-opacity="null" stroke-opacity="null" stroke-dasharray="null" stroke-width="null" stroke="#000" fill="none"/>
  <path id="svg_9" d="m139.80251,303.32468l105.8044,0l32.69562,-142.09244l32.69568,142.09244l105.80429,0l-85.59866,87.81543l32.69766,142.09213l-85.59897,-87.8194l-85.59883,87.8194l32.69757,-142.09213l-85.59875,-87.81543l0,0z" fill-opacity="null" stroke-opacity="null" stroke-dasharray="null" stroke-width="null" stroke="#000" fill="none"/>
  <path stroke="#000" id="svg_10" d="m383.57751,141.47368l205.5,-86.70582l205.5,86.70582l-78.49237,140.29417l-254.01526,0l-78.49237,-140.29417z" fill-opacity="null" stroke-opacity="null" stroke-dasharray="null" stroke-width="null" fill="none"/>
  <path id="svg_11" d="m7.4675,222.9222l104.50366,-136.90466l180.99197,-79.04754l209.00787,0l180.992,79.04754l104.50452,136.90466l0,158.09554l-104.50452,136.90378l-180.992,79.04846l-209.00787,0l-180.99197,-79.04846l-104.50366,-136.90378l0,-158.09554z" fill-opacity="null" stroke-opacity="null" stroke-dasharray="null" stroke-width="null" stroke="#000" fill="none"/>
 </g>
</svg>